<?xml version="1.0" encoding="utf-8"?>
<!-- Generator: Adobe Illustrator 16.0.0, SVG Export Plug-In . SVG Version: 6.00 Build 0)  -->
<!DOCTYPE svg PUBLIC "-//W3C//DTD SVG 1.1//EN" "http://www.w3.org/Graphics/SVG/1.1/DTD/svg11.dtd">
<svg version="1.1" id="Layer_1" xmlns="http://www.w3.org/2000/svg" xmlns:xlink="http://www.w3.org/1999/xlink" x="0px" y="0px"
	 width="512px" height="512px" viewBox="0 0 512 512" enable-background="new 0 0 512 512" xml:space="preserve">
<g>
	<g>
		<path fill-rule="evenodd" clip-rule="evenodd" d="M480,448h-32v-64c0-17.672-14.312-32-32-32s-32,14.328-32,32v64H128v-64
			c0-17.672-14.312-32-32-32s-32,14.328-32,32v64H32c-17.688,0-32,14.328-32,32s14.312,32,32,32h448c17.688,0,32-14.328,32-32
			S497.688,448,480,448z M480,0H32C14.312,0,0,14.328,0,32v192c0,35.344,28.656,64,64,64s64-28.656,64-64c0,35.344,28.656,64,64,64
			s64-28.656,64-64c0,35.344,28.656,64,64,64s64-28.656,64-64c0,35.344,28.656,64,64,64s64-28.656,64-64V32
			C512,14.328,497.688,0,480,0z"/>
	</g>
</g>
</svg>
