<?xml version="1.0" encoding="utf-8"?>
<!-- Generator: Adobe Illustrator 16.0.0, SVG Export Plug-In . SVG Version: 6.00 Build 0)  -->
<!DOCTYPE svg PUBLIC "-//W3C//DTD SVG 1.1//EN" "http://www.w3.org/Graphics/SVG/1.1/DTD/svg11.dtd">
<svg version="1.1" id="Layer_1" xmlns="http://www.w3.org/2000/svg" xmlns:xlink="http://www.w3.org/1999/xlink" x="0px" y="0px"
	 width="512px" height="512px" viewBox="0 0 512 512" enable-background="new 0 0 512 512" xml:space="preserve">
<g opacity="0.3">
	<line fill="none" stroke="#B35047" x1="48" y1="0" x2="48" y2="512"/>
	<line fill="none" stroke="#B35047" x1="80" y1="0" x2="80" y2="512"/>
	<line fill="none" stroke="#B35047" x1="112" y1="0" x2="112" y2="512"/>
	<line fill="none" stroke="#B35047" x1="144" y1="0" x2="144" y2="512"/>
	<line fill="none" stroke="#B35047" x1="176" y1="0" x2="176" y2="512"/>
	<line fill="none" stroke="#B35047" x1="208" y1="0" x2="208" y2="512"/>
	<line fill="none" stroke="#B35047" x1="240" y1="0" x2="240" y2="512"/>
	<line fill="none" stroke="#B35047" x1="272" y1="0" x2="272" y2="512"/>
	<line fill="none" stroke="#B35047" x1="304" y1="0" x2="304" y2="512"/>
	<line fill="none" stroke="#B35047" x1="336" y1="0" x2="336" y2="512"/>
	<line fill="none" stroke="#B35047" x1="368" y1="0" x2="368" y2="512"/>
	<line fill="none" stroke="#B35047" x1="400" y1="0" x2="400" y2="512"/>
	<line fill="none" stroke="#B35047" x1="432" y1="0" x2="432" y2="512"/>
	<line fill="none" stroke="#B35047" x1="464" y1="0" x2="464" y2="512"/>
	<line fill="none" stroke="#B35047" x1="496" y1="0" x2="496" y2="512"/>
	<line fill="none" stroke="#B35047" x1="0" y1="48" x2="512" y2="48"/>
	<line fill="none" stroke="#B35047" x1="0" y1="80" x2="512" y2="80"/>
	<line fill="none" stroke="#B35047" x1="0" y1="112" x2="512" y2="112"/>
	<line fill="none" stroke="#B35047" x1="0" y1="144" x2="512" y2="144"/>
	<line fill="none" stroke="#B35047" x1="0" y1="176" x2="512" y2="176"/>
	<line fill="none" stroke="#B35047" x1="0" y1="208" x2="512" y2="208"/>
	<line fill="none" stroke="#B35047" x1="0" y1="240" x2="512" y2="240"/>
	<line fill="none" stroke="#B35047" x1="0" y1="272" x2="512" y2="272"/>
	<line fill="none" stroke="#B35047" x1="0" y1="304" x2="512" y2="304"/>
	<line fill="none" stroke="#B35047" x1="0" y1="336" x2="512" y2="336"/>
	<line fill="none" stroke="#B35047" x1="0" y1="368" x2="512" y2="368"/>
	<line fill="none" stroke="#B35047" x1="0" y1="400" x2="512" y2="400"/>
	<line fill="none" stroke="#B35047" x1="0" y1="432" x2="512" y2="432"/>
	<line fill="none" stroke="#B35047" x1="0" y1="464" x2="512" y2="464"/>
	<line fill="none" stroke="#B35047" x1="0" y1="496" x2="512" y2="496"/>
	<line fill="none" stroke="#B35047" x1="0" y1="16" x2="512" y2="16"/>
	<line fill="none" stroke="#B35047" x1="16" y1="0" x2="16" y2="512"/>
</g>
<g>
	<line fill="none" stroke="#B35047" x1="32" y1="0" x2="32" y2="512"/>
	<line fill="none" stroke="#B35047" x1="64" y1="0" x2="64" y2="512"/>
	<line fill="none" stroke="#B35047" x1="96" y1="0" x2="96" y2="512"/>
	<line fill="none" stroke="#B35047" x1="128" y1="0" x2="128" y2="512"/>
	<line fill="none" stroke="#B35047" x1="160" y1="0" x2="160" y2="512"/>
	<line fill="none" stroke="#B35047" x1="192" y1="0" x2="192" y2="512"/>
	<line fill="none" stroke="#B35047" x1="224" y1="0" x2="224" y2="512"/>
	<line fill="none" stroke="#B35047" x1="256" y1="0" x2="256" y2="512"/>
	<line fill="none" stroke="#B35047" x1="288" y1="0" x2="288" y2="512"/>
	<line fill="none" stroke="#B35047" x1="320" y1="0" x2="320" y2="512"/>
	<line fill="none" stroke="#B35047" x1="352" y1="0" x2="352" y2="512"/>
	<line fill="none" stroke="#B35047" x1="384" y1="0" x2="384" y2="512"/>
	<line fill="none" stroke="#B35047" x1="416" y1="0" x2="416" y2="512"/>
	<line fill="none" stroke="#B35047" x1="448" y1="0" x2="448" y2="512"/>
	<line fill="none" stroke="#B35047" x1="480" y1="0" x2="480" y2="512"/>
	<line fill="none" stroke="#B35047" x1="0" y1="32" x2="512" y2="32"/>
	<line fill="none" stroke="#B35047" x1="0" y1="64" x2="512" y2="64"/>
	<line fill="none" stroke="#B35047" x1="0" y1="96" x2="512" y2="96"/>
	<line fill="none" stroke="#B35047" x1="0" y1="128" x2="512" y2="128"/>
	<line fill="none" stroke="#B35047" x1="0" y1="160" x2="512" y2="160"/>
	<line fill="none" stroke="#B35047" x1="0" y1="192" x2="512" y2="192"/>
	<line fill="none" stroke="#B35047" x1="0" y1="224" x2="512" y2="224"/>
	<line fill="none" stroke="#B35047" x1="0" y1="256" x2="512" y2="256"/>
	<line fill="none" stroke="#B35047" x1="0" y1="288" x2="512" y2="288"/>
	<line fill="none" stroke="#B35047" x1="0" y1="320" x2="512" y2="320"/>
	<line fill="none" stroke="#B35047" x1="0" y1="352" x2="512" y2="352"/>
	<line fill="none" stroke="#B35047" x1="0" y1="384" x2="512" y2="384"/>
	<line fill="none" stroke="#B35047" x1="0" y1="416" x2="512" y2="416"/>
	<line fill="none" stroke="#B35047" x1="0" y1="448" x2="512" y2="448"/>
	<line fill="none" stroke="#B35047" x1="0" y1="480" x2="512" y2="480"/>
	<rect fill="none" stroke="#B35047" width="512" height="512"/>
</g>
<path fill-rule="evenodd" clip-rule="evenodd" d="M319.967,503.497v-67.34C394.335,409.733,447.9,339.457,447.9,256
	c0-83.426-53.565-153.732-127.934-180.156V8.503C430.254,36.988,511.868,136.812,511.868,256S430.254,475.043,319.967,503.497z
	 M256,511.868L128.066,383.935H32.115c-17.678,0-31.983-14.306-31.983-31.983V160.05c0-17.679,14.306-31.983,31.983-31.983h95.951
	L256,0.133c0,0,31.983-3.998,31.983,31.983c0,72.899,0,382.053,0,447.769C287.983,515.866,256,511.868,256,511.868z
	 M224.017,128.066l-63.967,63.967H64.099v127.934h95.951l63.967,63.968V128.066z M415.917,256
	c0,59.532-40.854,109.132-95.95,123.405v-68.309C339.02,300.009,351.95,279.613,351.95,256c0-23.612-12.931-44.008-31.983-55.097
	v-68.308C375.063,146.869,415.917,196.469,415.917,256z"/>
</svg>
