<?xml version="1.0" encoding="utf-8"?>
<!-- Generator: Adobe Illustrator 16.0.0, SVG Export Plug-In . SVG Version: 6.00 Build 0)  -->
<!DOCTYPE svg PUBLIC "-//W3C//DTD SVG 1.1//EN" "http://www.w3.org/Graphics/SVG/1.1/DTD/svg11.dtd">
<svg version="1.1" id="Layer_1" xmlns="http://www.w3.org/2000/svg" xmlns:xlink="http://www.w3.org/1999/xlink" x="0px" y="0px"
	 width="512px" height="512px" viewBox="0 0 512 512" enable-background="new 0 0 512 512" xml:space="preserve">
<g opacity="0.3">
	<line fill="none" stroke="#B35047" x1="48" y1="0" x2="48" y2="512"/>
	<line fill="none" stroke="#B35047" x1="80" y1="0" x2="80" y2="512"/>
	<line fill="none" stroke="#B35047" x1="112" y1="0" x2="112" y2="512"/>
	<line fill="none" stroke="#B35047" x1="144" y1="0" x2="144" y2="512"/>
	<line fill="none" stroke="#B35047" x1="176" y1="0" x2="176" y2="512"/>
	<line fill="none" stroke="#B35047" x1="208" y1="0" x2="208" y2="512"/>
	<line fill="none" stroke="#B35047" x1="240" y1="0" x2="240" y2="512"/>
	<line fill="none" stroke="#B35047" x1="272" y1="0" x2="272" y2="512"/>
	<line fill="none" stroke="#B35047" x1="304" y1="0" x2="304" y2="512"/>
	<line fill="none" stroke="#B35047" x1="336" y1="0" x2="336" y2="512"/>
	<line fill="none" stroke="#B35047" x1="368" y1="0" x2="368" y2="512"/>
	<line fill="none" stroke="#B35047" x1="400" y1="0" x2="400" y2="512"/>
	<line fill="none" stroke="#B35047" x1="432" y1="0" x2="432" y2="512"/>
	<line fill="none" stroke="#B35047" x1="464" y1="0" x2="464" y2="512"/>
	<line fill="none" stroke="#B35047" x1="496" y1="0" x2="496" y2="512"/>
	<line fill="none" stroke="#B35047" x1="0" y1="48" x2="512" y2="48"/>
	<line fill="none" stroke="#B35047" x1="0" y1="80" x2="512" y2="80"/>
	<line fill="none" stroke="#B35047" x1="0" y1="112" x2="512" y2="112"/>
	<line fill="none" stroke="#B35047" x1="0" y1="144" x2="512" y2="144"/>
	<line fill="none" stroke="#B35047" x1="0" y1="176" x2="512" y2="176"/>
	<line fill="none" stroke="#B35047" x1="0" y1="208" x2="512" y2="208"/>
	<line fill="none" stroke="#B35047" x1="0" y1="240" x2="512" y2="240"/>
	<line fill="none" stroke="#B35047" x1="0" y1="272" x2="512" y2="272"/>
	<line fill="none" stroke="#B35047" x1="0" y1="304" x2="512" y2="304"/>
	<line fill="none" stroke="#B35047" x1="0" y1="336" x2="512" y2="336"/>
	<line fill="none" stroke="#B35047" x1="0" y1="368" x2="512" y2="368"/>
	<line fill="none" stroke="#B35047" x1="0" y1="400" x2="512" y2="400"/>
	<line fill="none" stroke="#B35047" x1="0" y1="432" x2="512" y2="432"/>
	<line fill="none" stroke="#B35047" x1="0" y1="464" x2="512" y2="464"/>
	<line fill="none" stroke="#B35047" x1="0" y1="496" x2="512" y2="496"/>
	<line fill="none" stroke="#B35047" x1="0" y1="16" x2="512" y2="16"/>
	<line fill="none" stroke="#B35047" x1="16" y1="0" x2="16" y2="512"/>
</g>
<g>
	<line fill="none" stroke="#B35047" x1="32" y1="0" x2="32" y2="512"/>
	<line fill="none" stroke="#B35047" x1="64" y1="0" x2="64" y2="512"/>
	<line fill="none" stroke="#B35047" x1="96" y1="0" x2="96" y2="512"/>
	<line fill="none" stroke="#B35047" x1="128" y1="0" x2="128" y2="512"/>
	<line fill="none" stroke="#B35047" x1="160" y1="0" x2="160" y2="512"/>
	<line fill="none" stroke="#B35047" x1="192" y1="0" x2="192" y2="512"/>
	<line fill="none" stroke="#B35047" x1="224" y1="0" x2="224" y2="512"/>
	<line fill="none" stroke="#B35047" x1="256" y1="0" x2="256" y2="512"/>
	<line fill="none" stroke="#B35047" x1="288" y1="0" x2="288" y2="512"/>
	<line fill="none" stroke="#B35047" x1="320" y1="0" x2="320" y2="512"/>
	<line fill="none" stroke="#B35047" x1="352" y1="0" x2="352" y2="512"/>
	<line fill="none" stroke="#B35047" x1="384" y1="0" x2="384" y2="512"/>
	<line fill="none" stroke="#B35047" x1="416" y1="0" x2="416" y2="512"/>
	<line fill="none" stroke="#B35047" x1="448" y1="0" x2="448" y2="512"/>
	<line fill="none" stroke="#B35047" x1="480" y1="0" x2="480" y2="512"/>
	<line fill="none" stroke="#B35047" x1="0" y1="32" x2="512" y2="32"/>
	<line fill="none" stroke="#B35047" x1="0" y1="64" x2="512" y2="64"/>
	<line fill="none" stroke="#B35047" x1="0" y1="96" x2="512" y2="96"/>
	<line fill="none" stroke="#B35047" x1="0" y1="128" x2="512" y2="128"/>
	<line fill="none" stroke="#B35047" x1="0" y1="160" x2="512" y2="160"/>
	<line fill="none" stroke="#B35047" x1="0" y1="192" x2="512" y2="192"/>
	<line fill="none" stroke="#B35047" x1="0" y1="224" x2="512" y2="224"/>
	<line fill="none" stroke="#B35047" x1="0" y1="256" x2="512" y2="256"/>
	<line fill="none" stroke="#B35047" x1="0" y1="288" x2="512" y2="288"/>
	<line fill="none" stroke="#B35047" x1="0" y1="320" x2="512" y2="320"/>
	<line fill="none" stroke="#B35047" x1="0" y1="352" x2="512" y2="352"/>
	<line fill="none" stroke="#B35047" x1="0" y1="384" x2="512" y2="384"/>
	<line fill="none" stroke="#B35047" x1="0" y1="416" x2="512" y2="416"/>
	<line fill="none" stroke="#B35047" x1="0" y1="448" x2="512" y2="448"/>
	<line fill="none" stroke="#B35047" x1="0" y1="480" x2="512" y2="480"/>
	<rect fill="none" stroke="#B35047" width="512" height="512"/>
</g>
<g>
	<path fill-rule="evenodd" clip-rule="evenodd" d="M448.035,256.047c0-106.051-85.953-192.035-192.035-192.035
		c-106.051,0-192.035,85.984-192.035,192.035c0,66.687,34.005,125.43,85.613,159.857l-53.482,53.463L138.666,512l69.842-69.843
		c15.19,3.865,31.1,5.925,47.492,5.925c16.394,0,32.305-2.059,47.493-5.923L373.334,512l42.57-42.633l-53.477-53.457
		C414.039,381.483,448.035,322.736,448.035,256.047z M256,384.07c-70.7,0-128.023-57.322-128.023-128.023
		c0-70.7,57.323-128.023,128.023-128.023s128.023,57.323,128.023,128.023C384.023,326.748,326.7,384.07,256,384.07z"/>
	<path fill-rule="evenodd" clip-rule="evenodd" d="M448.035,0c-35.351,0-64.012,28.662-64.012,64.012
		c0,2.909,0.213,5.768,0.589,8.574c21.307,14.963,39.885,33.542,54.849,54.849c2.807,0.376,5.665,0.588,8.574,0.588
		c35.351,0,64.012-28.661,64.012-64.012C512.047,28.662,483.386,0,448.035,0z"/>
	<path fill-rule="evenodd" clip-rule="evenodd" d="M72.539,127.435c14.963-21.307,33.542-39.886,54.849-54.849
		c0.376-2.807,0.588-5.665,0.588-8.574C127.977,28.662,99.315,0,63.965,0S-0.047,28.662-0.047,64.012
		c0,35.351,28.661,64.012,64.012,64.012C66.874,128.023,69.732,127.811,72.539,127.435z"/>
	<polygon fill-rule="evenodd" clip-rule="evenodd" points="288.006,224.041 288.006,160.029 223.994,160.029 223.994,288.053 
		320.012,288.053 320.012,224.041 	"/>
</g>
</svg>
