<?xml version="1.0" encoding="utf-8"?>
<!-- Generator: Adobe Illustrator 16.0.0, SVG Export Plug-In . SVG Version: 6.00 Build 0)  -->
<!DOCTYPE svg PUBLIC "-//W3C//DTD SVG 1.1//EN" "http://www.w3.org/Graphics/SVG/1.1/DTD/svg11.dtd">
<svg version="1.1" id="Layer_1" xmlns="http://www.w3.org/2000/svg" xmlns:xlink="http://www.w3.org/1999/xlink" x="0px" y="0px"
	 width="512px" height="512px" viewBox="0 0 512 512" enable-background="new 0 0 512 512" xml:space="preserve">
<g opacity="0.3">
	<line fill="none" stroke="#B35047" x1="48" y1="0" x2="48" y2="512"/>
	<line fill="none" stroke="#B35047" x1="80" y1="0" x2="80" y2="512"/>
	<line fill="none" stroke="#B35047" x1="112" y1="0" x2="112" y2="512"/>
	<line fill="none" stroke="#B35047" x1="144" y1="0" x2="144" y2="512"/>
	<line fill="none" stroke="#B35047" x1="176" y1="0" x2="176" y2="512"/>
	<line fill="none" stroke="#B35047" x1="208" y1="0" x2="208" y2="512"/>
	<line fill="none" stroke="#B35047" x1="240" y1="0" x2="240" y2="512"/>
	<line fill="none" stroke="#B35047" x1="272" y1="0" x2="272" y2="512"/>
	<line fill="none" stroke="#B35047" x1="304" y1="0" x2="304" y2="512"/>
	<line fill="none" stroke="#B35047" x1="336" y1="0" x2="336" y2="512"/>
	<line fill="none" stroke="#B35047" x1="368" y1="0" x2="368" y2="512"/>
	<line fill="none" stroke="#B35047" x1="400" y1="0" x2="400" y2="512"/>
	<line fill="none" stroke="#B35047" x1="432" y1="0" x2="432" y2="512"/>
	<line fill="none" stroke="#B35047" x1="464" y1="0" x2="464" y2="512"/>
	<line fill="none" stroke="#B35047" x1="496" y1="0" x2="496" y2="512"/>
	<line fill="none" stroke="#B35047" x1="0" y1="48" x2="512" y2="48"/>
	<line fill="none" stroke="#B35047" x1="0" y1="80" x2="512" y2="80"/>
	<line fill="none" stroke="#B35047" x1="0" y1="112" x2="512" y2="112"/>
	<line fill="none" stroke="#B35047" x1="0" y1="144" x2="512" y2="144"/>
	<line fill="none" stroke="#B35047" x1="0" y1="176" x2="512" y2="176"/>
	<line fill="none" stroke="#B35047" x1="0" y1="208" x2="512" y2="208"/>
	<line fill="none" stroke="#B35047" x1="0" y1="240" x2="512" y2="240"/>
	<line fill="none" stroke="#B35047" x1="0" y1="272" x2="512" y2="272"/>
	<line fill="none" stroke="#B35047" x1="0" y1="304" x2="512" y2="304"/>
	<line fill="none" stroke="#B35047" x1="0" y1="336" x2="512" y2="336"/>
	<line fill="none" stroke="#B35047" x1="0" y1="368" x2="512" y2="368"/>
	<line fill="none" stroke="#B35047" x1="0" y1="400" x2="512" y2="400"/>
	<line fill="none" stroke="#B35047" x1="0" y1="432" x2="512" y2="432"/>
	<line fill="none" stroke="#B35047" x1="0" y1="464" x2="512" y2="464"/>
	<line fill="none" stroke="#B35047" x1="0" y1="496" x2="512" y2="496"/>
	<line fill="none" stroke="#B35047" x1="0" y1="16" x2="512" y2="16"/>
	<line fill="none" stroke="#B35047" x1="16" y1="0" x2="16" y2="512"/>
</g>
<g>
	<line fill="none" stroke="#B35047" x1="32" y1="0" x2="32" y2="512"/>
	<line fill="none" stroke="#B35047" x1="64" y1="0" x2="64" y2="512"/>
	<line fill="none" stroke="#B35047" x1="96" y1="0" x2="96" y2="512"/>
	<line fill="none" stroke="#B35047" x1="128" y1="0" x2="128" y2="512"/>
	<line fill="none" stroke="#B35047" x1="160" y1="0" x2="160" y2="512"/>
	<line fill="none" stroke="#B35047" x1="192" y1="0" x2="192" y2="512"/>
	<line fill="none" stroke="#B35047" x1="224" y1="0" x2="224" y2="512"/>
	<line fill="none" stroke="#B35047" x1="256" y1="0" x2="256" y2="512"/>
	<line fill="none" stroke="#B35047" x1="288" y1="0" x2="288" y2="512"/>
	<line fill="none" stroke="#B35047" x1="320" y1="0" x2="320" y2="512"/>
	<line fill="none" stroke="#B35047" x1="352" y1="0" x2="352" y2="512"/>
	<line fill="none" stroke="#B35047" x1="384" y1="0" x2="384" y2="512"/>
	<line fill="none" stroke="#B35047" x1="416" y1="0" x2="416" y2="512"/>
	<line fill="none" stroke="#B35047" x1="448" y1="0" x2="448" y2="512"/>
	<line fill="none" stroke="#B35047" x1="480" y1="0" x2="480" y2="512"/>
	<line fill="none" stroke="#B35047" x1="0" y1="32" x2="512" y2="32"/>
	<line fill="none" stroke="#B35047" x1="0" y1="64" x2="512" y2="64"/>
	<line fill="none" stroke="#B35047" x1="0" y1="96" x2="512" y2="96"/>
	<line fill="none" stroke="#B35047" x1="0" y1="128" x2="512" y2="128"/>
	<line fill="none" stroke="#B35047" x1="0" y1="160" x2="512" y2="160"/>
	<line fill="none" stroke="#B35047" x1="0" y1="192" x2="512" y2="192"/>
	<line fill="none" stroke="#B35047" x1="0" y1="224" x2="512" y2="224"/>
	<line fill="none" stroke="#B35047" x1="0" y1="256" x2="512" y2="256"/>
	<line fill="none" stroke="#B35047" x1="0" y1="288" x2="512" y2="288"/>
	<line fill="none" stroke="#B35047" x1="0" y1="320" x2="512" y2="320"/>
	<line fill="none" stroke="#B35047" x1="0" y1="352" x2="512" y2="352"/>
	<line fill="none" stroke="#B35047" x1="0" y1="384" x2="512" y2="384"/>
	<line fill="none" stroke="#B35047" x1="0" y1="416" x2="512" y2="416"/>
	<line fill="none" stroke="#B35047" x1="0" y1="448" x2="512" y2="448"/>
	<line fill="none" stroke="#B35047" x1="0" y1="480" x2="512" y2="480"/>
	<rect fill="none" stroke="#B35047" width="512" height="512"/>
</g>
<path fill-rule="evenodd" clip-rule="evenodd" d="M256,0C114.615,0,0,114.615,0,256s114.615,256,256,256s256-114.615,256-256
	S397.385,0,256,0z M256,51.188c47.562,0,90.812,16.906,125.562,44.125c-16.156,13.938-50.875,40.375-103.938,65.438
	c-19.562-34.531-42.594-69.531-70.125-103.156C223.125,53.781,239.219,51.188,256,51.188z M168.938,71.281
	c15.5,21.062,41,58.375,67.906,106c-57.469,18.844-123.875,19.469-175.25,15.344C79.25,139,118.375,95.188,168.938,71.281z
	 M253.25,207.281c7.188,13.75,14.281,28.562,21.281,43.594c-107.312,23.531-157.562,93.969-177.656,132.594
	c-28.156-35.062-45.688-79-45.688-127.469c0-9.062,0.812-17.906,1.969-26.625C93.531,234.969,165,237.156,253.25,207.281z
	 M292.281,292.188c19.156,46.812,35.969,97.531,45.781,151.25c-25.156,11.031-52.844,17.375-82.062,17.375
	c-48.594,0-92.625-17.656-127.75-45.906C179.094,344.219,238.031,308.562,292.281,292.188z M374.719,422.344
	c-2.594-14.656-13.781-69.438-40.281-139.562c62.031-9.188,111.25,2.938,123.312,6.438
	C448.719,343.969,418.062,391.344,374.719,422.344z M318.969,244.531c-7.438-17.281-15.438-34.938-24.781-53.125
	c37.062-16.031,76.438-37.938,117.219-67.375c30.375,35.719,49.406,81.406,49.406,131.969
	C406.188,243.875,359.438,241.219,318.969,244.531z"/>
</svg>
