<?xml version="1.0" encoding="utf-8"?>
<!-- Generator: Adobe Illustrator 16.0.0, SVG Export Plug-In . SVG Version: 6.00 Build 0)  -->
<!DOCTYPE svg PUBLIC "-//W3C//DTD SVG 1.1//EN" "http://www.w3.org/Graphics/SVG/1.1/DTD/svg11.dtd">
<svg version="1.1" id="Layer_1" xmlns="http://www.w3.org/2000/svg" xmlns:xlink="http://www.w3.org/1999/xlink" x="0px" y="0px"
	 width="512px" height="512px" viewBox="0 0 512 512" enable-background="new 0 0 512 512" xml:space="preserve">
<g opacity="0.3">
	<line fill="none" stroke="#B35047" x1="48" y1="0" x2="48" y2="512"/>
	<line fill="none" stroke="#B35047" x1="80" y1="0" x2="80" y2="512"/>
	<line fill="none" stroke="#B35047" x1="112" y1="0" x2="112" y2="512"/>
	<line fill="none" stroke="#B35047" x1="144" y1="0" x2="144" y2="512"/>
	<line fill="none" stroke="#B35047" x1="176" y1="0" x2="176" y2="512"/>
	<line fill="none" stroke="#B35047" x1="208" y1="0" x2="208" y2="512"/>
	<line fill="none" stroke="#B35047" x1="240" y1="0" x2="240" y2="512"/>
	<line fill="none" stroke="#B35047" x1="272" y1="0" x2="272" y2="512"/>
	<line fill="none" stroke="#B35047" x1="304" y1="0" x2="304" y2="512"/>
	<line fill="none" stroke="#B35047" x1="336" y1="0" x2="336" y2="512"/>
	<line fill="none" stroke="#B35047" x1="368" y1="0" x2="368" y2="512"/>
	<line fill="none" stroke="#B35047" x1="400" y1="0" x2="400" y2="512"/>
	<line fill="none" stroke="#B35047" x1="432" y1="0" x2="432" y2="512"/>
	<line fill="none" stroke="#B35047" x1="464" y1="0" x2="464" y2="512"/>
	<line fill="none" stroke="#B35047" x1="496" y1="0" x2="496" y2="512"/>
	<line fill="none" stroke="#B35047" x1="0" y1="48" x2="512" y2="48"/>
	<line fill="none" stroke="#B35047" x1="0" y1="80" x2="512" y2="80"/>
	<line fill="none" stroke="#B35047" x1="0" y1="112" x2="512" y2="112"/>
	<line fill="none" stroke="#B35047" x1="0" y1="144" x2="512" y2="144"/>
	<line fill="none" stroke="#B35047" x1="0" y1="176" x2="512" y2="176"/>
	<line fill="none" stroke="#B35047" x1="0" y1="208" x2="512" y2="208"/>
	<line fill="none" stroke="#B35047" x1="0" y1="240" x2="512" y2="240"/>
	<line fill="none" stroke="#B35047" x1="0" y1="272" x2="512" y2="272"/>
	<line fill="none" stroke="#B35047" x1="0" y1="304" x2="512" y2="304"/>
	<line fill="none" stroke="#B35047" x1="0" y1="336" x2="512" y2="336"/>
	<line fill="none" stroke="#B35047" x1="0" y1="368" x2="512" y2="368"/>
	<line fill="none" stroke="#B35047" x1="0" y1="400" x2="512" y2="400"/>
	<line fill="none" stroke="#B35047" x1="0" y1="432" x2="512" y2="432"/>
	<line fill="none" stroke="#B35047" x1="0" y1="464" x2="512" y2="464"/>
	<line fill="none" stroke="#B35047" x1="0" y1="496" x2="512" y2="496"/>
	<line fill="none" stroke="#B35047" x1="0" y1="16" x2="512" y2="16"/>
	<line fill="none" stroke="#B35047" x1="16" y1="0" x2="16" y2="512"/>
</g>
<g>
	<line fill="none" stroke="#B35047" x1="32" y1="0" x2="32" y2="512"/>
	<line fill="none" stroke="#B35047" x1="64" y1="0" x2="64" y2="512"/>
	<line fill="none" stroke="#B35047" x1="96" y1="0" x2="96" y2="512"/>
	<line fill="none" stroke="#B35047" x1="128" y1="0" x2="128" y2="512"/>
	<line fill="none" stroke="#B35047" x1="160" y1="0" x2="160" y2="512"/>
	<line fill="none" stroke="#B35047" x1="192" y1="0" x2="192" y2="512"/>
	<line fill="none" stroke="#B35047" x1="224" y1="0" x2="224" y2="512"/>
	<line fill="none" stroke="#B35047" x1="256" y1="0" x2="256" y2="512"/>
	<line fill="none" stroke="#B35047" x1="288" y1="0" x2="288" y2="512"/>
	<line fill="none" stroke="#B35047" x1="320" y1="0" x2="320" y2="512"/>
	<line fill="none" stroke="#B35047" x1="352" y1="0" x2="352" y2="512"/>
	<line fill="none" stroke="#B35047" x1="384" y1="0" x2="384" y2="512"/>
	<line fill="none" stroke="#B35047" x1="416" y1="0" x2="416" y2="512"/>
	<line fill="none" stroke="#B35047" x1="448" y1="0" x2="448" y2="512"/>
	<line fill="none" stroke="#B35047" x1="480" y1="0" x2="480" y2="512"/>
	<line fill="none" stroke="#B35047" x1="0" y1="32" x2="512" y2="32"/>
	<line fill="none" stroke="#B35047" x1="0" y1="64" x2="512" y2="64"/>
	<line fill="none" stroke="#B35047" x1="0" y1="96" x2="512" y2="96"/>
	<line fill="none" stroke="#B35047" x1="0" y1="128" x2="512" y2="128"/>
	<line fill="none" stroke="#B35047" x1="0" y1="160" x2="512" y2="160"/>
	<line fill="none" stroke="#B35047" x1="0" y1="192" x2="512" y2="192"/>
	<line fill="none" stroke="#B35047" x1="0" y1="224" x2="512" y2="224"/>
	<line fill="none" stroke="#B35047" x1="0" y1="256" x2="512" y2="256"/>
	<line fill="none" stroke="#B35047" x1="0" y1="288" x2="512" y2="288"/>
	<line fill="none" stroke="#B35047" x1="0" y1="320" x2="512" y2="320"/>
	<line fill="none" stroke="#B35047" x1="0" y1="352" x2="512" y2="352"/>
	<line fill="none" stroke="#B35047" x1="0" y1="384" x2="512" y2="384"/>
	<line fill="none" stroke="#B35047" x1="0" y1="416" x2="512" y2="416"/>
	<line fill="none" stroke="#B35047" x1="0" y1="448" x2="512" y2="448"/>
	<line fill="none" stroke="#B35047" x1="0" y1="480" x2="512" y2="480"/>
	<rect fill="none" stroke="#B35047" width="512" height="512"/>
</g>
<path fill-rule="evenodd" clip-rule="evenodd" d="M255.843,112.036c0.062,79.524,64.464,143.988,143.987,143.988
	c42.684,0,80.649-18.936,108.615-62.745c4.719,0.844,3.688,43.309,3.375,62.745c-2.281,141.363-114.615,255.978-255.978,255.978
	c-141.363,0-255.979-114.615-255.979-255.978S114.479,1.921,255.843,0.046c16.874-0.219,34.653,0.312,63.433,1.719
	C301.37,20.044,255.812,64.384,255.843,112.036z M191.848,160.032c0-34.591,11.218-66.401,29.873-92.555
	c-89.68,16.155-157.861,94.21-157.861,188.546c0,106.021,85.961,191.984,191.983,191.984c94.335,0,172.392-68.182,188.546-157.861
	c-26.154,18.654-57.963,29.871-92.555,29.871C263.467,320.018,191.848,248.399,191.848,160.032z"/>
</svg>
