<?xml version="1.0" encoding="utf-8"?>
<!-- Generator: Adobe Illustrator 16.0.0, SVG Export Plug-In . SVG Version: 6.00 Build 0)  -->
<!DOCTYPE svg PUBLIC "-//W3C//DTD SVG 1.1//EN" "http://www.w3.org/Graphics/SVG/1.1/DTD/svg11.dtd">
<svg version="1.1" id="Layer_1" xmlns="http://www.w3.org/2000/svg" xmlns:xlink="http://www.w3.org/1999/xlink" x="0px" y="0px"
	 width="512px" height="512px" viewBox="0 0 512 512" enable-background="new 0 0 512 512" xml:space="preserve">
<g opacity="0.3">
	<line fill="none" stroke="#B35047" x1="48" y1="0" x2="48" y2="512"/>
	<line fill="none" stroke="#B35047" x1="80" y1="0" x2="80" y2="512"/>
	<line fill="none" stroke="#B35047" x1="112" y1="0" x2="112" y2="512"/>
	<line fill="none" stroke="#B35047" x1="144" y1="0" x2="144" y2="512"/>
	<line fill="none" stroke="#B35047" x1="176" y1="0" x2="176" y2="512"/>
	<line fill="none" stroke="#B35047" x1="208" y1="0" x2="208" y2="512"/>
	<line fill="none" stroke="#B35047" x1="240" y1="0" x2="240" y2="512"/>
	<line fill="none" stroke="#B35047" x1="272" y1="0" x2="272" y2="512"/>
	<line fill="none" stroke="#B35047" x1="304" y1="0" x2="304" y2="512"/>
	<line fill="none" stroke="#B35047" x1="336" y1="0" x2="336" y2="512"/>
	<line fill="none" stroke="#B35047" x1="368" y1="0" x2="368" y2="512"/>
	<line fill="none" stroke="#B35047" x1="400" y1="0" x2="400" y2="512"/>
	<line fill="none" stroke="#B35047" x1="432" y1="0" x2="432" y2="512"/>
	<line fill="none" stroke="#B35047" x1="464" y1="0" x2="464" y2="512"/>
	<line fill="none" stroke="#B35047" x1="496" y1="0" x2="496" y2="512"/>
	<line fill="none" stroke="#B35047" x1="0" y1="48" x2="512" y2="48"/>
	<line fill="none" stroke="#B35047" x1="0" y1="80" x2="512" y2="80"/>
	<line fill="none" stroke="#B35047" x1="0" y1="112" x2="512" y2="112"/>
	<line fill="none" stroke="#B35047" x1="0" y1="144" x2="512" y2="144"/>
	<line fill="none" stroke="#B35047" x1="0" y1="176" x2="512" y2="176"/>
	<line fill="none" stroke="#B35047" x1="0" y1="208" x2="512" y2="208"/>
	<line fill="none" stroke="#B35047" x1="0" y1="240" x2="512" y2="240"/>
	<line fill="none" stroke="#B35047" x1="0" y1="272" x2="512" y2="272"/>
	<line fill="none" stroke="#B35047" x1="0" y1="304" x2="512" y2="304"/>
	<line fill="none" stroke="#B35047" x1="0" y1="336" x2="512" y2="336"/>
	<line fill="none" stroke="#B35047" x1="0" y1="368" x2="512" y2="368"/>
	<line fill="none" stroke="#B35047" x1="0" y1="400" x2="512" y2="400"/>
	<line fill="none" stroke="#B35047" x1="0" y1="432" x2="512" y2="432"/>
	<line fill="none" stroke="#B35047" x1="0" y1="464" x2="512" y2="464"/>
	<line fill="none" stroke="#B35047" x1="0" y1="496" x2="512" y2="496"/>
	<line fill="none" stroke="#B35047" x1="0" y1="16" x2="512" y2="16"/>
	<line fill="none" stroke="#B35047" x1="16" y1="0" x2="16" y2="512"/>
</g>
<g>
	<line fill="none" stroke="#B35047" x1="32" y1="0" x2="32" y2="512"/>
	<line fill="none" stroke="#B35047" x1="64" y1="0" x2="64" y2="512"/>
	<line fill="none" stroke="#B35047" x1="96" y1="0" x2="96" y2="512"/>
	<line fill="none" stroke="#B35047" x1="128" y1="0" x2="128" y2="512"/>
	<line fill="none" stroke="#B35047" x1="160" y1="0" x2="160" y2="512"/>
	<line fill="none" stroke="#B35047" x1="192" y1="0" x2="192" y2="512"/>
	<line fill="none" stroke="#B35047" x1="224" y1="0" x2="224" y2="512"/>
	<line fill="none" stroke="#B35047" x1="256" y1="0" x2="256" y2="512"/>
	<line fill="none" stroke="#B35047" x1="288" y1="0" x2="288" y2="512"/>
	<line fill="none" stroke="#B35047" x1="320" y1="0" x2="320" y2="512"/>
	<line fill="none" stroke="#B35047" x1="352" y1="0" x2="352" y2="512"/>
	<line fill="none" stroke="#B35047" x1="384" y1="0" x2="384" y2="512"/>
	<line fill="none" stroke="#B35047" x1="416" y1="0" x2="416" y2="512"/>
	<line fill="none" stroke="#B35047" x1="448" y1="0" x2="448" y2="512"/>
	<line fill="none" stroke="#B35047" x1="480" y1="0" x2="480" y2="512"/>
	<line fill="none" stroke="#B35047" x1="0" y1="32" x2="512" y2="32"/>
	<line fill="none" stroke="#B35047" x1="0" y1="64" x2="512" y2="64"/>
	<line fill="none" stroke="#B35047" x1="0" y1="96" x2="512" y2="96"/>
	<line fill="none" stroke="#B35047" x1="0" y1="128" x2="512" y2="128"/>
	<line fill="none" stroke="#B35047" x1="0" y1="160" x2="512" y2="160"/>
	<line fill="none" stroke="#B35047" x1="0" y1="192" x2="512" y2="192"/>
	<line fill="none" stroke="#B35047" x1="0" y1="224" x2="512" y2="224"/>
	<line fill="none" stroke="#B35047" x1="0" y1="256" x2="512" y2="256"/>
	<line fill="none" stroke="#B35047" x1="0" y1="288" x2="512" y2="288"/>
	<line fill="none" stroke="#B35047" x1="0" y1="320" x2="512" y2="320"/>
	<line fill="none" stroke="#B35047" x1="0" y1="352" x2="512" y2="352"/>
	<line fill="none" stroke="#B35047" x1="0" y1="384" x2="512" y2="384"/>
	<line fill="none" stroke="#B35047" x1="0" y1="416" x2="512" y2="416"/>
	<line fill="none" stroke="#B35047" x1="0" y1="448" x2="512" y2="448"/>
	<line fill="none" stroke="#B35047" x1="0" y1="480" x2="512" y2="480"/>
	<rect fill="none" stroke="#B35047" width="512" height="512"/>
</g>
<path fill-rule="evenodd" clip-rule="evenodd" d="M256,512C114.625,512,0,397.375,0,256S114.625,0,256,0s256,114.625,256,256
	S397.375,512,256,512z M256,64C149.969,64,64,149.969,64,256s85.969,192,192,192s192-85.969,192-192S362.031,64,256,64z
	 M350.094,371.406l-5.625,3.281l-16.25,9.906l-9.594,6.969c-7.125,3.406-14.562,6.094-22.25,8.375V390.5l-2.719-21.719
	c0,0-1.344-12.531-3.375-15.812c-2.031-3.312-6.781-7.938-11.531-9.906s-8.125-1.969-10.844-5.25c-2.719-3.312-4.75-9.25-8.125-14.5
	c-3.406-5.281-7.469-10.562-7.469-13.188s0-29.656,0-29.656l3.406-25.031l7.438-5.281l8.812-9.875l6.094-1.969l21,3.938h14.906
	l6.125,12.531l14.219,11.188l8.812,13.844l11.5,3.938H367.5l8.812,10.562l5.438,11.188l2.031,7.906v13.188l-1.406,7.781
	C373.781,348.469,362.875,360.875,350.094,371.406z M297.719,144.062l-14.906,7.906l-5.406,15.156l-8.812,7.906h-29.156
	l-13.531,5.281l-0.688,10.531l-5.406,8.562l-1.375,9.25l2.719,7.906l3.375,7.906c0,0,8.156,9.219,0,15.812
	c0,0-10.156,0-12.188-3.312c-2.031-3.281-16.938-12.5-19.656-15.156c-2.688-2.625-11.5-5.25-11.5-5.25l-10.844-3.969l-10.156-0.656
	l0.656-13.844l-0.656-11.844l-4.094-8.562l-11.5-8.594l-0.688-9.219l1.406-5.125c27.438-26.531,65.25-42.969,107-42.969
	c23.562,0,45.594,5.656,65.5,14.969l-0.438,3.469L297.719,144.062z"/>
</svg>
